<?xml version="1.0" standalone="no"?>
<!DOCTYPE svg PUBLIC "-//W3C//DTD SVG 20010904//EN"
 "http://www.w3.org/TR/2001/REC-SVG-20010904/DTD/svg10.dtd">
<svg version="1.0" xmlns="http://www.w3.org/2000/svg"
 width="100.000000pt" height="100.000000pt" viewBox="0 0 100.000000 100.000000"
 preserveAspectRatio="xMidYMid meet">

<g transform="translate(0.000000,100.000000) scale(0.100000,-0.100000)"
fill="#000000" stroke="none">
<path d="M445 981 c-54 -34 -433 -424 -440 -453 -4 -16 -4 -40 0 -55 9 -38
430 -459 467 -468 57 -14 79 3 300 223 221 221 237 243 223 300 -7 30 -401
434 -447 458 -36 19 -67 18 -103 -5z m297 -239 c165 -165 218 -223 218 -242 0
-35 -425 -460 -460 -460 -35 0 -460 425 -460 460 0 35 425 460 460 460 19 0
77 -53 242 -218z"/>
<path d="M514 731 c-12 -5 -30 -22 -41 -37 l-20 -28 -28 22 c-33 26 -90 30
-99 6 -11 -29 -6 -54 14 -74 l20 -20 -32 -20 c-18 -11 -59 -30 -90 -42 -35
-14 -58 -29 -58 -38 0 -17 279 -300 296 -300 7 0 17 13 24 29 6 16 24 41 40
56 27 26 29 26 54 10 23 -15 28 -16 57 -1 18 9 38 16 45 16 17 0 64 58 64 79
0 10 -9 30 -20 44 -11 14 -38 63 -59 109 -37 82 -40 85 -95 109 -55 24 -74 49
-37 49 10 0 38 -9 62 -20 56 -25 89 -26 89 -2 0 30 -143 71 -186 53z m-105
-85 c19 -20 26 -22 59 -13 31 8 46 6 91 -13 51 -23 55 -27 88 -99 19 -41 43
-87 54 -102 15 -22 18 -33 10 -47 -13 -25 -97 -50 -114 -33 -21 21 -50 11 -92
-33 l-43 -44 -113 114 c-62 62 -111 115 -109 117 3 2 26 12 52 22 47 17 128
78 128 96 0 4 -13 15 -30 24 -16 9 -30 20 -30 25 0 18 26 10 49 -14z"/>
</g>
</svg>
